<svg width="32" height="32" viewBox="0 0 32 32" fill="none" xmlns="http://www.w3.org/2000/svg">
<path d="M19.4265 18.0558L22.7147 27.0903L20.9424 26.8863L20.6318 26.8497L20.4175 27.0773L19.1909 28.3728L15.9026 19.3384L19.4265 18.0558Z" fill="#46AF4B" stroke="#46AF4B" stroke-width="1.25"/>
<path d="M13.5735 18.0558L10.2853 27.0903L12.0576 26.8863L12.3682 26.8497L12.5825 27.0773L13.8091 28.3728L17.0974 19.3384L13.5735 18.0558Z" fill="#46AF4B" stroke="#46AF4B" stroke-width="1.25"/>
<path d="M15.2393 4.55371C15.888 3.75113 17.112 3.75113 17.7607 4.55371C18.4746 5.43669 19.6417 5.81612 20.7383 5.52148C21.7348 5.25355 22.725 5.97243 22.7783 7.00293C22.8368 8.1371 23.5585 9.13006 24.6191 9.53613C25.5829 9.90515 25.9612 11.0695 25.3984 11.9346C24.7791 12.8865 24.7791 14.1135 25.3984 15.0654C25.9612 15.9305 25.5829 17.0949 24.6191 17.4639C23.5585 17.8699 22.8368 18.8629 22.7783 19.9971C22.725 21.0276 21.7348 21.7465 20.7383 21.4785C19.6417 21.1839 18.4746 21.5633 17.7607 22.4463C17.112 23.2489 15.888 23.2489 15.2393 22.4463C14.5254 21.5633 13.3583 21.1839 12.2617 21.4785C11.2652 21.7465 10.275 21.0276 10.2217 19.9971C10.1632 18.8629 9.44145 17.8699 8.38086 17.4639C7.41709 17.0949 7.03875 15.9305 7.60156 15.0654C8.22091 14.1135 8.22091 12.8865 7.60156 11.9346C7.03875 11.0695 7.41709 9.90515 8.38086 9.53613C9.44145 9.13006 10.1632 8.1371 10.2217 7.00293C10.275 5.97243 11.2652 5.25355 12.2617 5.52148C13.3583 5.81612 14.5254 5.43669 15.2393 4.55371Z" fill="#FFC000" stroke="#FFC000" stroke-width="1.25"/>
<circle cx="16.5" cy="13.5" r="7.5" fill="white"/>
<path d="M20.9899 14.6513C20.9384 14.1158 20.6977 13.6394 20.3558 13.3883C20.2984 13.1792 20.1982 12.9844 20.0615 12.816C20.0169 12.3557 19.7924 11.9315 19.4368 11.6357C19.4949 11.5858 19.5438 11.5262 19.5814 11.4595C19.9964 11.2742 20.289 10.885 20.3229 10.5956C20.5316 10.4014 20.6596 10.136 20.6816 9.85181C20.6879 9.73671 20.6661 9.6218 20.6181 9.51699C20.7048 9.43425 20.7664 9.32872 20.7957 9.21255C20.825 9.09637 20.821 8.97427 20.7839 8.86031C20.6601 8.50144 20.226 8.2685 19.643 8.24379C19.4662 8.09372 19.2393 8.01601 19.0077 8.02625C18.8921 8.02678 18.7769 8.04095 18.6647 8.06847C18.5588 8.02093 18.4436 7.99761 18.3276 8.00019C18.1017 8.00261 17.8802 8.06298 17.6844 8.17551C17.6586 8.17213 17.6327 8.17045 17.6067 8.17049C17.3173 8.17046 17.028 8.36991 16.8813 8.48878C16.7381 8.6047 16.61 8.73816 16.5 8.88603C16.39 8.73818 16.2619 8.60473 16.1187 8.48881C15.972 8.36993 15.6827 8.17051 15.3933 8.17049C15.3673 8.17045 15.3414 8.17213 15.3156 8.17551C15.1198 8.063 14.8983 8.00263 14.6725 8.00019C14.5564 7.99761 14.4412 8.02093 14.3353 8.06847C14.2231 8.04095 14.1079 8.02678 13.9924 8.02625C13.7607 8.01601 13.5338 8.09372 13.357 8.24379C12.774 8.26849 12.3399 8.50144 12.216 8.86033C12.179 8.97429 12.175 9.09639 12.2043 9.21256C12.2336 9.32873 12.2952 9.43425 12.3818 9.51699C12.3339 9.62182 12.3121 9.73673 12.3184 9.85183C12.3404 10.136 12.4684 10.4015 12.6771 10.5956C12.711 10.885 13.0036 11.2742 13.4186 11.4595C13.4562 11.5262 13.5051 11.5858 13.5632 11.6357C13.2076 11.9315 12.9831 12.3557 12.9385 12.816C12.8018 12.9843 12.7016 13.1792 12.6442 13.3883C12.3023 13.6394 12.0616 14.1158 12.0101 14.6513C11.9589 15.1836 12.1049 15.6805 12.4021 15.9952C12.4554 16.2629 12.5656 16.516 12.7253 16.7373C12.761 17.1558 12.9321 17.5513 13.2128 17.8638C13.4934 18.1864 13.8703 18.4103 14.2878 18.5026C14.5368 18.7345 14.829 18.9153 15.1476 19.0348C15.3271 19.2076 15.539 19.3432 15.7711 19.4339C16.0032 19.5246 16.2509 19.5686 16.5 19.5633C16.7491 19.5686 16.9968 19.5246 17.2289 19.4339C17.461 19.3432 17.6729 19.2076 17.8524 19.0348C18.171 18.9153 18.4631 18.7345 18.7122 18.5026C19.1297 18.4103 19.5065 18.1864 19.7872 17.8638C20.0679 17.5513 20.239 17.1558 20.2747 16.7373C20.4344 16.516 20.5446 16.2629 20.5979 15.9952C20.8951 15.6805 21.0411 15.1836 20.9899 14.6513Z" fill="black"/>
<path d="M17.5904 8.77627C17.5976 8.7742 17.6052 8.77393 17.6126 8.77548C17.6199 8.77704 17.6268 8.78037 17.6325 8.78519C17.6383 8.79001 17.6428 8.79617 17.6456 8.80313C17.6485 8.81008 17.6495 8.81763 17.6488 8.8251C17.6342 8.96262 17.7174 8.9453 17.737 8.92086C17.9536 8.65157 18.183 8.59031 18.3884 8.60839C18.3966 8.60923 18.4044 8.61226 18.411 8.61714C18.4176 8.62203 18.4228 8.62861 18.426 8.63618C18.4293 8.64376 18.4304 8.65205 18.4293 8.66021C18.4282 8.66837 18.4249 8.67608 18.4199 8.68255C18.3383 8.8036 18.4261 8.82661 18.4587 8.80487C18.792 8.59647 19.1099 8.59609 19.232 8.68362C19.2375 8.68772 19.242 8.69299 19.2452 8.69906C19.2483 8.70512 19.2501 8.71182 19.2504 8.71866C19.2507 8.7255 19.2494 8.73232 19.2467 8.73861C19.244 8.7449 19.2399 8.7505 19.2347 8.755C19.1114 8.86009 19.1804 8.9124 19.224 8.89645C19.5624 8.77703 20.0296 8.88268 20.1925 9.02047C20.1976 9.02473 20.2018 9.03005 20.2046 9.03605C20.2075 9.04205 20.209 9.0486 20.2092 9.05525C20.2093 9.0619 20.2079 9.0685 20.2053 9.07459C20.2026 9.08068 20.1987 9.08613 20.1937 9.09056C20.0968 9.16467 20.0156 9.25736 19.9549 9.3632C19.8943 9.46904 19.8553 9.58591 19.8403 9.70699C19.8311 9.78804 19.9656 9.77099 20.0224 9.75639C20.029 9.75469 20.036 9.75451 20.0427 9.75586C20.0494 9.7572 20.0558 9.76003 20.0613 9.76415C20.0668 9.76827 20.0713 9.77356 20.0744 9.77964C20.0776 9.78573 20.0794 9.79244 20.0796 9.7993C20.0848 9.99412 19.9005 10.2083 19.6264 10.3914C19.5897 10.4159 19.5949 10.4748 19.6787 10.4769C19.6867 10.477 19.6945 10.4791 19.7014 10.4831C19.7083 10.4871 19.714 10.4929 19.718 10.4998C19.7219 10.5068 19.724 10.5146 19.7239 10.5226C19.7239 10.5306 19.7217 10.5384 19.7177 10.5453C19.6199 10.7268 19.487 10.8976 19.0342 11.0149C19.0248 11.0174 19.0165 11.0227 19.0103 11.0301C19.0041 11.0376 19.0004 11.0468 18.9997 11.0564C18.999 11.0661 19.0013 11.0757 19.0064 11.0839C19.0114 11.0922 19.0189 11.0987 19.0278 11.1025C19.0358 11.1047 19.043 11.1091 19.0486 11.1153C19.0542 11.1214 19.058 11.129 19.0595 11.1372C19.061 11.1453 19.0602 11.1538 19.0571 11.1615C19.0541 11.1692 19.0489 11.176 19.0422 11.1809C18.5914 11.5682 17.4486 11.4155 17.3035 10.7636C17.3021 10.7572 17.3021 10.7505 17.3036 10.7441C17.305 10.7377 17.3078 10.7316 17.3118 10.7264C17.7968 10.0786 18.4532 9.57916 19.2069 9.28443C19.2152 9.2813 19.2221 9.27521 19.2262 9.26733C19.2302 9.25945 19.2313 9.25034 19.2291 9.24174C19.2269 9.23314 19.2216 9.22566 19.2142 9.22073C19.2068 9.21581 19.1978 9.21378 19.189 9.21505C18.7807 9.27441 18.3882 9.41474 18.0348 9.6278C17.6814 9.84087 17.3741 10.1224 17.1309 10.4558C17.1243 10.4647 17.1147 10.471 17.1039 10.4734C17.0931 10.4759 17.0818 10.4744 17.072 10.4692C16.3394 10.091 16.941 8.97423 17.5904 8.77627Z" fill="#46AF4B"/>
<path d="M13.2825 10.5453C13.2785 10.5384 13.2763 10.5306 13.2763 10.5226C13.2762 10.5146 13.2783 10.5068 13.2822 10.4998C13.2862 10.4929 13.2919 10.4871 13.2988 10.4831C13.3057 10.4791 13.3135 10.477 13.3215 10.4769C13.4053 10.4748 13.4105 10.4159 13.3738 10.3914C13.0997 10.2083 12.9154 9.99412 12.9205 9.7993C12.9208 9.79244 12.9226 9.78573 12.9257 9.77964C12.9289 9.77356 12.9334 9.76827 12.9389 9.76415C12.9444 9.76003 12.9507 9.7572 12.9575 9.75586C12.9642 9.75451 12.9711 9.75469 12.9778 9.75639C13.0345 9.77099 13.169 9.78804 13.1598 9.70699C13.1449 9.58591 13.1059 9.46904 13.0452 9.3632C12.9846 9.25736 12.9034 9.16467 12.8065 9.09056C12.8015 9.08613 12.7976 9.08069 12.7949 9.07459C12.7922 9.0685 12.7909 9.0619 12.791 9.05525C12.7911 9.0486 12.7927 9.04205 12.7955 9.03605C12.7984 9.03005 12.8025 9.02473 12.8076 9.02047C12.9706 8.88268 13.4378 8.77703 13.7762 8.89645C13.8198 8.9124 13.8888 8.86009 13.7655 8.755C13.7603 8.7505 13.7562 8.7449 13.7535 8.73861C13.7508 8.73232 13.7495 8.72551 13.7498 8.71866C13.75 8.71182 13.7518 8.70512 13.755 8.69906C13.7582 8.693 13.7627 8.68772 13.7682 8.68362C13.8902 8.59609 14.2082 8.59647 14.5415 8.80487C14.574 8.82661 14.6619 8.8036 14.5803 8.68255C14.5752 8.67608 14.572 8.66837 14.5709 8.66021C14.5698 8.65206 14.5709 8.64376 14.5741 8.63618C14.5773 8.62861 14.5825 8.62203 14.5892 8.61715C14.5958 8.61226 14.6036 8.60924 14.6118 8.60839C14.8172 8.5903 15.0466 8.65157 15.2631 8.92086C15.2828 8.9453 15.366 8.96262 15.3514 8.8251C15.3506 8.81763 15.3517 8.81009 15.3546 8.80313C15.3574 8.79617 15.3619 8.79001 15.3676 8.78519C15.3734 8.78038 15.3803 8.77704 15.3876 8.77549C15.395 8.77393 15.4026 8.7742 15.4098 8.77627C16.0592 8.97423 16.6607 10.091 15.9282 10.4692C15.9184 10.4744 15.9071 10.4759 15.8962 10.4734C15.8854 10.471 15.8758 10.4647 15.8692 10.4558C15.6261 10.1224 15.3188 9.84086 14.9654 9.6278C14.6119 9.41474 14.2195 9.2744 13.8111 9.21504C13.8023 9.21378 13.7934 9.2158 13.786 9.22073C13.7786 9.22565 13.7733 9.23313 13.7711 9.24173C13.7689 9.25033 13.7699 9.25945 13.774 9.26732C13.7781 9.2752 13.785 9.28129 13.7933 9.28443C14.547 9.57916 15.2034 10.0786 15.6884 10.7263C15.6924 10.7316 15.6952 10.7377 15.6966 10.7441C15.698 10.7505 15.698 10.7572 15.6966 10.7636C15.5516 11.4155 14.4088 11.5682 13.958 11.1809C13.9513 11.176 13.9461 11.1692 13.9431 11.1615C13.94 11.1538 13.9392 11.1453 13.9407 11.1372C13.9422 11.129 13.946 11.1214 13.9516 11.1153C13.9572 11.1091 13.9644 11.1047 13.9724 11.1025C13.9813 11.0987 13.9888 11.0922 13.9938 11.0839C13.9988 11.0757 14.0012 11.0661 14.0005 11.0564C13.9998 11.0468 13.9961 11.0376 13.9899 11.0301C13.9837 11.0227 13.9754 11.0174 13.966 11.0149C13.5132 10.8976 13.3803 10.7268 13.2825 10.5453Z" fill="#46AF4B"/>
<path d="M19.3868 12.5384C19.5746 13.0381 19.4283 13.2783 18.9827 13.0239C18.6232 12.8251 18.3054 12.5587 18.0468 12.2395C17.7112 11.8407 17.9293 11.6631 18.4581 11.7589C18.6606 11.8126 18.8488 11.9103 19.0093 12.0451C19.1698 12.1798 19.2987 12.3482 19.3868 12.5384Z" fill="#CD2355"/>
<path d="M17.3868 11.9764C18.0241 12.5061 17.2939 12.881 16.4994 12.881C15.7048 12.881 14.9747 12.5061 15.6119 11.9764C15.8635 11.7743 16.1766 11.6641 16.4994 11.6641C16.8221 11.6641 17.1352 11.7743 17.3868 11.9764Z" fill="#CD2355"/>
<path d="M13.6151 12.5384C13.7032 12.3482 13.8321 12.1798 13.9926 12.0451C14.1531 11.9103 14.3413 11.8126 14.5439 11.7589C15.0726 11.6631 15.2907 11.8407 14.9551 12.2395C14.6965 12.5587 14.3787 12.8251 14.0192 13.0239C13.5736 13.2783 13.4273 13.0381 13.6151 12.5384Z" fill="#CD2355"/>
<path d="M12.6931 15.315C12.62 15.1174 12.5916 14.906 12.6099 14.6961C12.6282 14.4862 12.6928 14.283 12.799 14.101C13.0344 13.7004 13.2714 13.7164 13.3654 14.0557C13.4849 14.5237 13.4416 15.0184 13.2428 15.4586C13.0684 15.8051 12.8504 15.688 12.6931 15.315Z" fill="#CD2355"/>
<path d="M14.391 17.9097C14.1031 17.837 13.8452 17.6757 13.6538 17.4486C13.4624 17.2215 13.3471 16.9401 13.3242 16.644C13.4126 14.5873 16.3766 18.2601 14.391 17.9097Z" fill="#CD2355"/>
<path d="M14.4497 15.3478C13.9527 15.0608 13.8211 14.358 14.1559 13.7782C14.4907 13.1983 15.1651 12.9608 15.6621 13.2478C16.1592 13.5347 16.2907 14.2375 15.9559 14.8174C15.6211 15.3973 14.9468 15.6347 14.4497 15.3478Z" fill="#CD2355"/>
<path d="M17.3283 18.6953C17.0867 18.8693 16.7966 18.9629 16.4989 18.9629C16.2012 18.9629 15.911 18.8693 15.6695 18.6953C15.177 18.3552 15.6724 17.9639 16.4989 17.9639C17.3253 17.9639 17.8208 18.3552 17.3283 18.6953Z" fill="#CD2355"/>
<path d="M16.5004 17.4486C17.1376 17.4486 17.6542 17.0058 17.6542 16.4596C17.6542 15.9135 17.1376 15.4707 16.5004 15.4707C15.8632 15.4707 15.3467 15.9135 15.3467 16.4596C15.3467 17.0058 15.8632 17.4486 16.5004 17.4486Z" fill="#CD2355"/>
<path d="M17.0446 14.8174C16.7098 14.2375 16.8413 13.5347 17.3384 13.2478C17.8354 12.9608 18.5098 13.1983 18.8446 13.7782C19.1794 14.358 19.0479 15.0608 18.5508 15.3477C18.0538 15.6347 17.3794 15.3973 17.0446 14.8174Z" fill="#CD2355"/>
<path d="M18.6092 17.9097C16.6236 18.2601 19.5876 14.5873 19.676 16.644C19.6531 16.9401 19.5378 17.2215 19.3464 17.4486C19.155 17.6757 18.8972 17.837 18.6092 17.9097Z" fill="#CD2355"/>
<path d="M20.3078 15.315C20.1505 15.688 19.9325 15.8051 19.7581 15.4586C19.5593 15.0184 19.516 14.5237 19.6355 14.0557C19.7295 13.7164 19.9665 13.7004 20.2019 14.101C20.3081 14.283 20.3727 14.4862 20.391 14.6961C20.4093 14.906 20.3809 15.1174 20.3078 15.315Z" fill="#CD2355"/>
</svg>
